<svg xmlns="http://www.w3.org/2000/svg" viewBox="0 0 967.71 234.12"><defs><style>.cls-1{fill:#e53582;}.cls-2{fill-rule:evenodd;}</style></defs><g id="katman_2" data-name="katman 2"><g id="katman_1-2" data-name="katman 1"><path d="M312.51,58.83,330.32,94l17.26-35.18a9,9,0,0,0,1.17-3.94q0-4.2-9.7-4.19V49.42h21.66V50.7q-5.34,0-7.89,2.54a24.75,24.75,0,0,0-3.94,6.11L331.7,94.09l.13,31.68q0,8.91,10.18,8.91V136H301.29v-1.27q10.17,0,10.18-8.91l-.13-24.17L290,59.35q-4.2-8.66-11.84-8.65V49.42h25.35Q308.3,49.42,312.51,58.83Z"/><path d="M362.72,77.61q-3.3-6.56-10.94-6.55V69.78h24.57q5.49,0,8.54,9.41L400.13,126q2.79,8.66,12,8.65V136H371.37v-1.27q8.28,0,8.28-4.33a13.06,13.06,0,0,0-.77-3.81l-5.63-17.31H353.82l-5.69,17.28a13.54,13.54,0,0,0-.71,3.7q0,4.47,9.23,4.47V136H335.11v-1.27q9,0,11.83-8.65ZM372.84,108,363.5,79.67l-.07-.13L354.17,108Z"/><path d="M461.06,70.42h1.27l1.15,17.94H462.2a23.12,23.12,0,0,0-4.26-10.3,16.51,16.51,0,0,0-7.06-5.44,27.42,27.42,0,0,0-11.45-2.2q-6,0-9.48,3.11c-2.34,2.08-3.5,4.26-3.5,6.54a7.51,7.51,0,0,0,2.93,6.48,47.55,47.55,0,0,0,7.14,4.32l19.1,8.88q11.92,6.39,11.93,16.61,0,20.22-30.58,20.23h-.2l-1.1,5a14,14,0,0,1,4.9-.75,17,17,0,0,1,12,4.93,10.13,10.13,0,0,1,3.5,7.45q0,5.58-5.6,9.07a17.93,17.93,0,0,1-9.61,2.6q-7.26,0-12.72-6.06l.19-1.4q5.65,6.19,11.51,6.19,8.46,0,8.46-13.27,0-8.24-7.69-8.24a10.58,10.58,0,0,0-7,2.17l1.71-7.77a27.92,27.92,0,0,1-7.38-1.2,31.59,31.59,0,0,1-10.43-5.48,5.13,5.13,0,0,0-3.18-1.27q-3.18,0-3.18,7.13H409.9l.51-19.6h1.28a11.77,11.77,0,0,0,1.4,4.84,24.13,24.13,0,0,0,12,12,28.57,28.57,0,0,0,11.9,2.42q13,0,13-9.67,0-6.89-7.64-10.82l-17.94-8.14a26.17,26.17,0,0,1-10.12-7.51,15.94,15.94,0,0,1-3.24-9.93,17,17,0,0,1,7.83-14.76q7.75-5.34,20.55-5.34a29.81,29.81,0,0,1,10.49,1.65,20.63,20.63,0,0,0,7.42,1.59C459.56,72.39,460.8,71.74,461.06,70.42Z"/><path d="M487.37,77.61q-3.3-6.56-10.94-6.55V69.78H501q5.48,0,8.53,9.41L524.78,126q2.81,8.66,12,8.65V136H496v-1.27q8.27,0,8.27-4.33a13.06,13.06,0,0,0-.77-3.81l-5.63-17.31H478.47l-5.69,17.28a13.54,13.54,0,0,0-.71,3.7q0,4.47,9.23,4.47V136H459.76v-1.27q9,0,11.83-8.65ZM497.49,108l-9.34-28.29-.07-.13L478.82,108Z"/><path d="M581.46,109.42a31.58,31.58,0,0,1,3.55,14,8.43,8.43,0,0,1-1.14,4.37H566.81a2.36,2.36,0,0,0,.64-1.77,1.64,1.64,0,0,0-.17-.76L548.42,80.12l-3.55,45.65v.64q0,8.26,10,8.27V136H533.41v-1.27q9.68,0,10.18-8.91L547.15,80q0-8.89-10.18-8.9V69.78h28.38q14.39,35.31,15.59,37.73l19.21-37.73h27.74v1.28q-10.17,0-10.18,8.9l3.5,45.81q.7,8.91,10.18,8.91V136H590.31v-1.27q10.55,0,10.54-7.66v-1.28l-3.86-46Z"/><path d="M679.44,136v-1.27q9.79,0,10.18-7.76V59.6q0-8.9-10.18-8.9V49.42h33.09q38.18,0,38.17,17.56,0,15.4-24.18,18.58,15,1.53,24.69,8t9.67,16.92q0,12.35-10.37,18.9T722.71,136ZM710,50.7V85.05h2.55q9.4,0,14-3.94,3.83-3.31,3.82-13.87,0-8.77-3.31-12.47-3.43-4.08-14.5-4.07Zm0,84h12.73q9.4,0,14-4.84,3.82-3.93,3.82-19.34-.25-11.19-5.34-17.68t-17.56-6.49H710Z"/><path d="M793.81,136.59q-17.17,0-26.47-8.78t-9.16-24.94q0-16,9.29-24.94t26.34-8.78q17.06,0,26.34,8.78t9.29,24.94q0,16.16-9.16,24.94T793.81,136.59Zm0-1.27q9.68,0,12.47-6.75t2.8-25.7q0-18.84-2.8-25.71t-12.47-6.74q-10.93,0-13.36,8.4-1.91,6.74-1.91,24.05t1.91,24Q782.86,135.32,793.81,135.32Z"/><path d="M853.51,79.18l12.7,25,12.17-25a9.23,9.23,0,0,0,1.17-3.93q0-4.2-9.7-4.19V69.78h21.66v1.28c-3.56,0-6.19.84-7.89,2.54a23.75,23.75,0,0,0-3.94,6.11l-12.09,24.56v21.5q0,8.91,10.18,8.91V136H837.05v-1.27q10.19,0,10.18-8.91v-14L830.94,79.71q-4.2-8.65-11.83-8.65V69.78h25.35Q849.31,69.78,853.51,79.18Z"/><path d="M957.53,100.32q0,36.27-22.91,36.27-16.79,0-26.21-8T899,102.87V80q0-8.89-10.19-8.9V69.78h40.72v1.28q-10.17,0-10.18,8.9v33.09q0,22.26,15.27,22.27,21.64,0,21.64-35V80q0-8.89-10.18-8.9V69.78h21.63v1.28q-10.19,0-10.18,8.9Z"/><path d="M352.55,218l2.34-.58v-24.9l-2.34-.59v-.58h10.9c4.31,0,7.39.71,9.26,2.12a8.36,8.36,0,0,1,0,12.49c-1.87,1.41-4.95,2.12-9.26,2.12h-2.14v9.34l2.34.58v.59h-11.1Zm10.9-10.89a4.81,4.81,0,0,0,3.95-1.87,10.89,10.89,0,0,0,0-11,4.8,4.8,0,0,0-3.95-1.89h-2.14v14.79Z"/><path d="M380.3,218.14a6.68,6.68,0,0,1-1.52-1.09,5,5,0,0,1-1.36,1.32,4.79,4.79,0,0,1-.78.43h-1v-6.61h1.55a10.93,10.93,0,0,0,1.48,3,6.09,6.09,0,0,0,5.14,3,3.46,3.46,0,0,0,2.47-.8,3,3,0,0,0,.84-2.31A2.64,2.64,0,0,0,386,213a26.16,26.16,0,0,0-3.6-2.16,35.67,35.67,0,0,1-3.4-1.89,8.22,8.22,0,0,1-2.22-2.1,5,5,0,0,1-.92-3,4.47,4.47,0,0,1,2-3.79c1.33-1,3.39-1.46,6.16-1.46a7.07,7.07,0,0,1,3.82,1.09,9.2,9.2,0,0,1,1.48,1.05,6,6,0,0,1,1.36-1.33,7.16,7.16,0,0,1,.78-.42h1v6.61h-1.56a14.05,14.05,0,0,0-1.44-3c-1.29-2-2.84-3-4.63-3a2.37,2.37,0,0,0-1.79.78,2.73,2.73,0,0,0-.74,1.94,3.07,3.07,0,0,0,1.25,2.48A23,23,0,0,0,387.3,207a37.14,37.14,0,0,1,3.29,1.85,8,8,0,0,1,2.1,2,4.35,4.35,0,0,1,.88,2.72q0,5.64-8.95,5.64A8.8,8.8,0,0,1,380.3,218.14Z"/><path d="M394.31,218l2.33-.58V200.32l-2.33-.59v-.58h5.06q3.5,0,3.5,3.5v14.79l2.33.58v.59H394.31Zm3.11-22a2.82,2.82,0,1,1,1.95.78A2.65,2.65,0,0,1,397.42,196Z"/><path d="M405.36,218l2.33-.58v-24.9l-2.33-.59v-.58h5.06q3.49,0,3.5,3.5v13.62l7.2-7.59-2.92-1.17v-.58h7.39v.58l-3.11,1.17L418,205.57l7.58,11.87,2,.58v.59h-5.06a5.12,5.12,0,0,1-3-.82,8.35,8.35,0,0,1-2.22-2.49l-3.31-5.25v7.39l2.33.58v.59H405.36Z"/><path d="M428.49,216.45a11.83,11.83,0,1,1,7.57,2.74A10.22,10.22,0,0,1,428.49,216.45Zm10.2-.22q1.06-2.17,1.07-7.35t-1.07-7.35c-.72-1.46-1.59-2.18-2.63-2.18s-1.91.72-2.63,2.18-1.07,3.9-1.07,7.35.36,5.9,1.07,7.35,1.59,2.18,2.63,2.18S438,217.69,438.69,216.23Z"/><path d="M447.31,218l2.33-.58v-24.9l-2.33-.59v-.58h5.05q3.51,0,3.51,3.5v22.57l2.33.58v.59H447.31Z"/><path d="M461.1,216.45a11.83,11.83,0,1,1,7.57,2.74A10.22,10.22,0,0,1,461.1,216.45Zm10.2-.22q1.06-2.17,1.07-7.35t-1.07-7.35c-.72-1.46-1.59-2.18-2.63-2.18s-1.91.72-2.63,2.18-1.07,3.9-1.07,7.35.36,5.9,1.07,7.35,1.59,2.18,2.63,2.18S470.58,217.69,471.3,216.23Z"/><path d="M475.44,226a3.15,3.15,0,0,1-1.36-2.72,2.74,2.74,0,0,1,2.92-2.92,3.34,3.34,0,0,1,.62.06,2.75,2.75,0,0,0,.43.06l.5.07V226l.23.12a3.32,3.32,0,0,0,.55.07,2.25,2.25,0,0,0,2-1.45,11.78,11.78,0,0,0,.75-5V200.32l-2.33-.59v-.58h5.06q3.5,0,3.5,3.5v17.12a6.68,6.68,0,0,1-4,6.27,10.56,10.56,0,0,1-4.59.93A7.44,7.44,0,0,1,475.44,226Zm7.39-30a2.82,2.82,0,1,1,1.95.78A2.65,2.65,0,0,1,482.83,196Z"/><path d="M490.57,218l2.34-.58V200.32l-2.34-.59v-.58h5.06q3.51,0,3.51,3.5v14.79l2.33.58v.59h-10.9Zm3.12-22a2.82,2.82,0,1,1,1.94.78A2.65,2.65,0,0,1,493.69,196Z"/><path class="cls-1" d="M513.39,226.53V191.22h2.16v35.31Z"/><path d="M526,218l2.34-.58v-24.9L526,192v-.58h20.82v7h-1.17a5.45,5.45,0,0,1-1.28-1.48,8.74,8.74,0,0,1-1.24-4.55h-8.37V204.6h4.47a8.57,8.57,0,0,1,1-2.76,7.24,7.24,0,0,1,.73-1.13h1.17v8.75H541a7.24,7.24,0,0,1-.73-1.13,8.57,8.57,0,0,1-1-2.76h-4.47v12.06h9.14a8.78,8.78,0,0,1,1.25-4.55,5.61,5.61,0,0,1,1.28-1.48h1.17v7H526Z"/><path d="M552.06,226.35a7.16,7.16,0,0,1-3.14-1.59,3,3,0,0,1-.95-2.07,2.83,2.83,0,0,1,.8-2.12,2.87,2.87,0,0,1,2.12-.8,9.35,9.35,0,0,1,1.13.12l.42.08v5.45c.32.1.81.23,1.48.39a16.6,16.6,0,0,0,3.39.38c3.16,0,5.48-.44,6.94-1.34a3.87,3.87,0,0,0,2.2-3.32c0-1.69-1.55-2.53-4.67-2.53h-7.39a7.17,7.17,0,0,1-4.47-1.21,3.72,3.72,0,0,1-1.56-3.07,4.16,4.16,0,0,1,1.83-3.31,7.57,7.57,0,0,1,1.87-1,5.66,5.66,0,0,1-2.09-2.13,6.31,6.31,0,0,1-.64-2.93,5.71,5.71,0,0,1,2.18-4.65q2.18-1.77,6.38-1.77a14.26,14.26,0,0,1,3.37.37,7.48,7.48,0,0,1,2.47,1,4.18,4.18,0,0,1,.82-1.17,3.88,3.88,0,0,1,2.88-1.17,3,3,0,0,1,2.21.92,3.27,3.27,0,0,1,.9,2.39,2.73,2.73,0,0,1-.6,1.83,2,2,0,0,1-1.54.7,5.83,5.83,0,0,1-1-.08l-.39-.11V199a2.59,2.59,0,0,0-1.91,1,3.18,3.18,0,0,0-.62,1,6.09,6.09,0,0,1-.24,9.13q-2.17,1.77-6.38,1.77a12.82,12.82,0,0,1-5.06-1l-.77.38a2.89,2.89,0,0,0-.59.45.75.75,0,0,0-.19.53,1.08,1.08,0,0,0,.68,1,5.89,5.89,0,0,0,2.43.35h7.39a6.11,6.11,0,0,1,4.58,1.69A6.5,6.5,0,0,1,568,220a6,6,0,0,1-2.59,5.06c-1.72,1.3-4.3,1.94-7.72,1.94A20.84,20.84,0,0,1,552.06,226.35Zm2.31-30.08A2.75,2.75,0,0,1,553,193.9a2.26,2.26,0,0,1,2.34-2.34l.89.12.47.08V196a5.45,5.45,0,0,1,.56.19,4.8,4.8,0,0,0,1.58.2,4.74,4.74,0,0,0,1.57-.2,4.44,4.44,0,0,1,.57-.19v-4.28l.46-.08.9-.12a2.27,2.27,0,0,1,1.67.66,2.29,2.29,0,0,1,.66,1.68,2.75,2.75,0,0,1-1.42,2.37,10.94,10.94,0,0,1-8.83,0Zm5.53,13.5a13.77,13.77,0,0,0,0-8.79,2.23,2.23,0,0,0-4,0,13.77,13.77,0,0,0,0,8.79,2.23,2.23,0,0,0,4,0Z"/><path d="M569.92,218l2.33-.58V200.32l-2.33-.59v-.58H575q3.51,0,3.51,3.5v14.79l2.33.58v.59H569.92ZM573,196a2.82,2.82,0,1,1,1.94.78A2.65,2.65,0,0,1,573,196Z"/><path d="M586.63,218.26a6.75,6.75,0,0,1-3.91-6.27V200.12H580v-1h2.73v-2q0-3.49,3.5-3.5h2.72v5.45h5.45v1h-5.45V212a11.14,11.14,0,0,0,.74,4.9,2.36,2.36,0,0,0,2.18,1.33,3.06,3.06,0,0,0,2.45-1.36,5.92,5.92,0,0,0,1.05-3.7h1a6.35,6.35,0,0,1-1.44,4.45,4.89,4.89,0,0,1-3.82,1.58A10,10,0,0,1,586.63,218.26Z"/><path d="M596.3,218l2.33-.58V200.32l-2.33-.59v-.58h5.06q3.5,0,3.5,3.5v14.79l2.33.58v.59H596.3Zm3.11-22a2.82,2.82,0,1,1,2,.78A2.65,2.65,0,0,1,599.41,196Z"/><path d="M607.35,218l2.33-.58V200.32l-2.33-.59v-.58h3.5a4.6,4.6,0,0,1,3.62,1.48,5.29,5.29,0,0,1,.86,1.44,7.36,7.36,0,0,1,1.24-1.75,5.5,5.5,0,0,1,4-1.75,7.8,7.8,0,0,1,4,1,6.94,6.94,0,0,1,2.65,2.7,7.6,7.6,0,0,1,1.24-1.82,5.42,5.42,0,0,1,4-1.87,8,8,0,0,1,3.71.85,6.34,6.34,0,0,1,2.57,2.34,6,6,0,0,1,.92,3.23v12.45L642,218v.59h-5.06q-3.49,0-3.5-3.5V205a7.38,7.38,0,0,0-.78-3.8,2.16,2.16,0,0,0-1.75-1.26,3.1,3.1,0,0,0-2.29,1.56,10,10,0,0,0-.82,1.55v14.4l2.33.58v.59H619.22V218l2.33-.58V205a7.38,7.38,0,0,0-.78-3.8,2.16,2.16,0,0,0-1.75-1.26,3.12,3.12,0,0,0-2.29,1.56,10.91,10.91,0,0,0-.82,1.55v14.4l2.33.58v.59H607.35Z"/><path class="cls-1" d="M655,226.53V191.22h2.16v35.31Z"/><path d="M669.09,218.1l2.35-.59V192.4l-2.35-.59v-.59h10q7,0,10.77,3.61T693.61,205q0,6.53-3.75,10.13t-10.77,3.6h-10Zm10-.4a6.41,6.41,0,0,0,5.65-3c1.33-2,2-5.24,2-9.79s-.67-7.81-2-9.78a6.42,6.42,0,0,0-5.65-3h-1.18v25.5Z"/><path d="M696.82,217.78a4.65,4.65,0,0,1-1.88-3.8,7.24,7.24,0,0,1,.67-3,5.23,5.23,0,0,1,.7-1.3c1.07-.26,2.24-.49,3.49-.7a64.93,64.93,0,0,1,7.5-.87v-1.17c0-2.91-.36-4.91-1.06-6a3.6,3.6,0,0,0-3.26-1.64,4.5,4.5,0,0,0-1.41.19l-.55.2v5.88l-.51.12a9.32,9.32,0,0,1-1.06.08,2.77,2.77,0,0,1-2.94-2.94,3.64,3.64,0,0,1,1.82-3.06,9.61,9.61,0,0,1,5.44-1.26,11.88,11.88,0,0,1,5.27,1.08,7.89,7.89,0,0,1,3.38,3,8.28,8.28,0,0,1,1.15,4.38v10.59l2.36.59v.58H712.4a4.62,4.62,0,0,1-3.65-1.45,4.09,4.09,0,0,1-.86-1.49,8.88,8.88,0,0,1-1.3,1.77,6,6,0,0,1-4.39,1.76A8.47,8.47,0,0,1,696.82,217.78Zm9.58-1.45a10.86,10.86,0,0,0,.9-1.57v-5.69a29.42,29.42,0,0,0-3.46.2c-.81.1-1.36.17-1.64.19a9.34,9.34,0,0,0-.4,1.18,11.66,11.66,0,0,0-.39,2.94,6.3,6.3,0,0,0,.67,3.26,2,2,0,0,0,1.69,1.06A3.32,3.32,0,0,0,706.4,216.33Z"/><path d="M716.08,218.1l2.36-.59V200.25l-2.36-.59v-.59h3.53a4.65,4.65,0,0,1,3.65,1.49,5.37,5.37,0,0,1,.87,1.45,7.09,7.09,0,0,1,1.29-1.76,6,6,0,0,1,4.39-1.77,8.4,8.4,0,0,1,4,.92,7.21,7.21,0,0,1,2.72,2.42,5.56,5.56,0,0,1,1,3.13v12.56l2.36.59v.58h-5.1c-2.36,0-3.53-1.17-3.53-3.53V205a6.75,6.75,0,0,0-.89-3.78,2.48,2.48,0,0,0-2.06-1.32,3.34,3.34,0,0,0-2.66,1.57,6.73,6.73,0,0,0-.87,1.57v14.52l2.36.59v.58h-11Z"/><path d="M740,218.1l2.36-.59V200.25l-2.36-.59v-.59h5.1q3.54,0,3.54,3.53v14.91l2.35.59v.58H740Z"/><path d="M760.73,219.27v1.38a4,4,0,0,1,2.7.86,2.63,2.63,0,0,1,1,2.08,2.6,2.6,0,0,1-1.06,2.1,4.81,4.81,0,0,1-3.06.84c-.44,0-1,0-1.53-.08l-.66-.12v-1.17a1.15,1.15,0,0,0,.39.19,2.61,2.61,0,0,0,1,.2,1.83,1.83,0,0,0,2-2,1.85,1.85,0,0,0-.57-1.43,2.22,2.22,0,0,0-1.59-.53v-2.4a8.55,8.55,0,0,1-3.37-1,6.54,6.54,0,0,1-1.53-1.09,5.18,5.18,0,0,1-2.16,1.76h-1v-6.67h1.57a11.14,11.14,0,0,0,1.49,3.06,6.14,6.14,0,0,0,5.18,3,3.5,3.5,0,0,0,2.49-.8,3.1,3.1,0,0,0,.84-2.34,2.63,2.63,0,0,0-1.15-2.17,27,27,0,0,0-3.63-2.18,38.89,38.89,0,0,1-3.43-1.9,8.22,8.22,0,0,1-2.24-2.12,5,5,0,0,1-.92-3,4.53,4.53,0,0,1,2-3.83c1.34-1,3.42-1.47,6.22-1.47a7.17,7.17,0,0,1,3.84,1.1,10,10,0,0,1,1.49,1.06,6,6,0,0,1,1.37-1.33,8,8,0,0,1,.79-.44h1v6.67h-1.57a14.33,14.33,0,0,0-1.45-3q-2-3.06-4.67-3.06a2.35,2.35,0,0,0-1.8.79,2.71,2.71,0,0,0-.75,2,3.07,3.07,0,0,0,1.26,2.49A22.51,22.51,0,0,0,763,207a37.74,37.74,0,0,1,3.32,1.87,8.11,8.11,0,0,1,2.11,2,4.43,4.43,0,0,1,.89,2.74Q769.36,219.16,760.73,219.27Z"/><path d="M770.1,218.1l2.36-.59V200.25l-2.36-.59v-.59h3.53a4.67,4.67,0,0,1,3.65,1.49,5.11,5.11,0,0,1,.86,1.45,7.46,7.46,0,0,1,1.26-1.76,5.55,5.55,0,0,1,4-1.77,7.79,7.79,0,0,1,4,1,7,7,0,0,1,2.67,2.73,8.15,8.15,0,0,1,1.25-1.85,5.51,5.51,0,0,1,4-1.88,8.09,8.09,0,0,1,3.75.86,6.51,6.51,0,0,1,2.59,2.36,6.1,6.1,0,0,1,.92,3.25v12.56l2.36.59v.58h-5.1c-2.36,0-3.53-1.17-3.53-3.53V205a7.43,7.43,0,0,0-.79-3.82,2.18,2.18,0,0,0-1.77-1.28,3.18,3.18,0,0,0-2.31,1.57,11.14,11.14,0,0,0-.82,1.57v14.52l2.35.59v.58h-11v-.58l2.35-.59V205a7.44,7.44,0,0,0-.78-3.82,2.2,2.2,0,0,0-1.77-1.28,3.15,3.15,0,0,0-2.31,1.57,11.19,11.19,0,0,0-.83,1.57v14.52l2.36.59v.58h-11Z"/><path d="M807.45,217.78a4.63,4.63,0,0,1-1.89-3.8,7.4,7.4,0,0,1,.67-3,5.26,5.26,0,0,1,.71-1.3c1.07-.26,2.23-.49,3.49-.7a64.54,64.54,0,0,1,7.49-.87v-1.17q0-4.36-1.06-6a3.58,3.58,0,0,0-3.25-1.64,4.61,4.61,0,0,0-1.42.19l-.55.2v5.88l-.51.12a9.17,9.17,0,0,1-1,.08,2.78,2.78,0,0,1-3-2.94,3.63,3.63,0,0,1,1.83-3.06,9.55,9.55,0,0,1,5.43-1.26,12,12,0,0,1,5.28,1.08,7.86,7.86,0,0,1,3.37,3,8.28,8.28,0,0,1,1.16,4.38v10.59l2.35.59v.58H823a4.64,4.64,0,0,1-3.65-1.45,4.24,4.24,0,0,1-.86-1.49,9.25,9.25,0,0,1-1.29,1.77,6,6,0,0,1-4.4,1.76A8.42,8.42,0,0,1,807.45,217.78Zm9.57-1.45a9.26,9.26,0,0,0,.9-1.57v-5.69a29.38,29.38,0,0,0-3.45.2c-.81.1-1.36.17-1.65.19a8.11,8.11,0,0,0-.39,1.18,11.66,11.66,0,0,0-.39,2.94,6.31,6.31,0,0,0,.66,3.26,2,2,0,0,0,1.69,1.06A3.31,3.31,0,0,0,817,216.33Z"/><path d="M826.71,218.1l2.35-.59V200.25l-2.35-.59v-.59h3.53a4.67,4.67,0,0,1,3.65,1.49,5.11,5.11,0,0,1,.86,1.45,7.37,7.37,0,0,1,1.3-1.76,5.94,5.94,0,0,1,4.39-1.77,8.36,8.36,0,0,1,3.94.92,7.24,7.24,0,0,1,2.73,2.42,5.63,5.63,0,0,1,1,3.13v12.56l2.35.59v.58h-5.1c-2.35,0-3.53-1.17-3.53-3.53V205a6.75,6.75,0,0,0-.88-3.78,2.5,2.5,0,0,0-2.06-1.32,3.37,3.37,0,0,0-2.67,1.57,6.36,6.36,0,0,0-.86,1.57v14.52l2.35.59v.58h-11Z"/><path d="M850.6,218.1l2.35-.59V192.4l-2.35-.59v-.59h5.1q3.52,0,3.53,3.53v22.76l2.35.59v.58h-11Z"/><path d="M861.74,218.1l2.35-.59V200.25l-2.35-.59v-.59h5.1q3.52,0,3.53,3.53v14.91l2.35.59v.58h-11Z"/><path d="M872.88,218.1l2.35-.59V192.4l-2.35-.59v-.59H878q3.53,0,3.53,3.53v13.73l7.26-7.65-2.94-1.17v-.59h7.45v.59l-3.14,1.17-4.51,4.71,7.65,12,2,.59v.58h-5.1a5.24,5.24,0,0,1-3.06-.82,8.6,8.6,0,0,1-2.23-2.51l-3.34-5.3v7.46l2.35.59v.58h-11Z"/><path class="cls-1" d="M87.4,61.27A93.12,93.12,0,0,1,96.8,37.5,82.05,82.05,0,0,1,113,17a71.43,71.43,0,0,1,10.78-8c1-.6,2-1.14,3-1.7s2-1,3.07-1.52L131.39,5c.53-.23,1.06-.43,1.59-.65,1.06-.45,2.15-.82,3.24-1.2A57.35,57.35,0,0,1,149.88.29C152.16.1,154.42,0,156.69,0s4.55.08,6.84.29a65.68,65.68,0,0,1,13.8,2.63,49.6,49.6,0,0,1,6.85,2.73,42.09,42.09,0,0,1,6.52,4A34.33,34.33,0,0,1,200.87,22a38.42,38.42,0,0,1,3.77,15.26,46.66,46.66,0,0,1-1.83,15A58,58,0,0,1,197,65.67a67.52,67.52,0,0,1-19.61,20.78l-7-15a51.68,51.68,0,0,1,30.11.72,48.5,48.5,0,0,1,24.27,18.05c11.82,17,11.38,40.78-1.6,56.63A45,45,0,0,1,212,156.52a56.57,56.57,0,0,1-6.31,3.38l-1.59.71-.77.33-.83.31c-1.12.41-2.21.88-3.35,1.22a56.83,56.83,0,0,1-13.79,2.67,67.18,67.18,0,0,1-13.7-.53,89.34,89.34,0,0,1-25.32-7.88,107.44,107.44,0,0,1-21.92-13.82c3.83,1.93,7.7,3.71,11.66,5.26s7.93,3,11.95,4.14a106.72,106.72,0,0,0,12.15,2.82,78.56,78.56,0,0,0,12.16,1.17,53.63,53.63,0,0,0,22.88-4.25c.88-.36,1.71-.83,2.57-1.24l.64-.31.67-.36c.43-.24.87-.47,1.28-.71a43.7,43.7,0,0,0,4.73-3.08,34.86,34.86,0,0,0,7.5-7.66,30.23,30.23,0,0,0,4.42-9.42,33.69,33.69,0,0,0,1.31-10.43,36.57,36.57,0,0,0-1.84-10.26,32.27,32.27,0,0,0-12.06-16.12,33.44,33.44,0,0,0-9.17-4.5,35.26,35.26,0,0,0-20.35-.34h0a8.42,8.42,0,0,1-7-15,52,52,0,0,0,14.95-15.47,40.76,40.76,0,0,0,4.39-9.52,32.51,32.51,0,0,0,1.16-5,32.09,32.09,0,0,0,.41-4.95,22.74,22.74,0,0,0-1.83-9.16,20.05,20.05,0,0,0-5.41-7.27,26.61,26.61,0,0,0-4-2.82,41.23,41.23,0,0,0-4.73-2.24A52.81,52.81,0,0,0,162,13.34a76.42,76.42,0,0,0-11.53-.94l-1.41,0-.66,0-.7.05-1.41.09-1.4.16c-.94.09-1.86.26-2.8.4s-1.86.34-2.79.56a61.07,61.07,0,0,0-21.1,9.66,84.72,84.72,0,0,0-17.51,16.73A116.33,116.33,0,0,0,87.4,61.27Z"/><path class="cls-2" d="M155.35,45.94c-4,0-13.62.63-18.49,5.5s-8,18.24-8,41.24-2,29.23-7.75,35c-8.62,8.62-27.24,9.25-27.24,9.25V99.58c0-8-.25-12.25,3.5-16s16.25-3.25,16.25-3.25V74.59H52.23v5.74s12.49-.5,16.24,3.25,3.5,8,3.5,16v37.33s-18.61-.63-27.24-9.25c-5.75-5.75-7.74-12-7.74-35s-3.13-36.37-8-41.24-14.5-5.5-18.49-5.5S0,46.19,0,46.19v5.25H7.78c6.11,0,6.91,8,6.91,12.52,0,7.37.05,21.48.05,26.73,0,10.49,3,27.49,13.5,38s43.73,14,43.73,14v70.22c0,7.25-2.25,12-5.75,14.75s-16,2.49-16,2.49v4h65.39v-4s-12.5.25-16-2.49-5.75-7.5-5.75-14.75v-9.44h0V142.66s33.24-3.5,43.74-14,13.49-27.49,13.49-38c0-5.25.06-19.36.06-26.73,0-4.5.79-12.52,6.91-12.52h7.78V46.19S159.35,45.94,155.35,45.94Z"/><path class="cls-1" d="M147.72,221.12l.21-.16c1-1,1-1,.94-1.08s-.56.25-.58.19.55-.68.48-.69-.67.5-.69.46.53-.64.44-.71-.66.6-.71.52.58-.75.49-.8-.78.69-1,.92a.05.05,0,0,1-.09,0c-.15-.63-.2-.67-.26-.64a8.9,8.9,0,0,0-.25,1.42,13.84,13.84,0,0,1-3.3,1.93h0a3.61,3.61,0,0,0-.62-.05h0l0,0,0-.31h0V222a2.17,2.17,0,0,0,1.41-2c0-.27,0-.53.06-.8a.75.75,0,0,0,.26-1.43.47.47,0,0,0-.31,0,2.71,2.71,0,0,0-.19-.77,3.2,3.2,0,0,0-1-1.27,1.14,1.14,0,0,0,.22-.6l-.05.06a1.31,1.31,0,0,1-.48.12c.35-.89-.71-1.06-.71-1.06s.56.56-.45.68c-.07-.39-.21-1.06-.38-1.13s-.45.41-.61.73a.24.24,0,0,0-.12,0h0a.33.33,0,0,0-.13.07c-.28-.23-.72-.55-.84-.41s0,.64.08,1a1,1,0,0,0-.38.27.39.39,0,0,0,0,.14h0v.1a3.13,3.13,0,0,0-1.16,3,.69.69,0,0,0-.61.05,1,1,0,0,0,1,1.54l.12-.11a2.88,2.88,0,0,0,2.36,1.91l0,.35-.88.08h-.08l0,0v0a12.55,12.55,0,0,1-3-2.45,11.21,11.21,0,0,0,0-1.44c-.06,0-.12,0-.36.59a.05.05,0,0,1-.09,0,6,6,0,0,0-.85-1.07c-.09,0,.41.8.36.87s-.53-.68-.63-.62.36.73.33.76-.53-.56-.61-.56.39.71.36.76-.5-.32-.54-.28-.07,0,.77,1.22l.17.19c.05.25.59,3.09,2.58,4.32h0c0,.07-.06.15-.08.23s-2,5.61,1.85,6.6,4.11-.66,4.11-.66.21-.14.51-.38a6,6,0,0,0,1.8,0,1.62,1.62,0,0,0,1.34-1.72.6.6,0,0,0-.26-.53c-.5-.26-1.16.65-1.16.65a1.7,1.7,0,0,0-.33-.38,7.81,7.81,0,0,0-1.07-4A7.42,7.42,0,0,0,147.72,221.12Z"/><path class="cls-1" d="M208.87,231.62,206,230.3c0-1.06-.2-6.56-.54-12.24l1.15-.25a41.46,41.46,0,0,0-1-14.28c.07-.08-.07-1.2,0-1.26s.49.78.57.75.13,0-.25-2.18c0,0-.06-.17-.12-.37h0l-.06-.75a73.06,73.06,0,0,0-.51-10h0a10.63,10.63,0,0,0,1.16-.89,28.72,28.72,0,0,0-1.57-2.83c.24-.85,1.1-.91.51-2.32-.72-1.71,1.26-1.64.1-3.56-.65-1.08,1.29-2.11-.49-3.65-.75-.65.94-1.93-.91-3-1.07-.6-.18-2.45-2.51-2.37-1.4.15-.66-1.62-3-.49a1.68,1.68,0,0,0-3,.13c-.49.9-2.49-.71-3,1.74-.29,1.37-2.4.86-1.86,2.78.62,2.2-1.63,1.8-.52,3.48s-1.47,2.88.21,4.09c1.09.78-.59,1.94-.06,3.17a27.37,27.37,0,0,0-1.53,2.48s.14.13.39.33h0c-2.66,3.36.46,9,2,10.65h0a1,1,0,0,0,.26.14,1.81,1.81,0,0,0,.55.12,39.27,39.27,0,0,0-1.48,18.39s.71.15,1.93.3c.52,5.64,1.17,11,1.3,12.1l-2,1.32h0l-.63.41a.34.34,0,0,0,.19.63H196a.3.3,0,0,0,.3-.3v-2h0l.57-11.8a40.55,40.55,0,0,0,4.18-.12l2.44,12h0l.3,2a.31.31,0,0,0,.35.25l4.71-.72A.34.34,0,0,0,208.87,231.62Zm-7.24-36.46c.18-.3,1-4.22,1-4.31v0s0,0,0,0h0a44.38,44.38,0,0,1,1.1,7.66A16.46,16.46,0,0,0,201.63,195.16Zm3-5,0,0Zm-1.3.58h0Zm.67-.26h0Zm-14.56-1.32-.07-.05Zm1,.68-.08,0Zm-.35-.23-.1-.07Zm-.32-.23-.1-.07Zm1.11,3.18a5.86,5.86,0,0,1,1.22-1.88l-.07,0a3.81,3.81,0,0,0,.89.24.06.06,0,0,1,0,0v0h0s.89,4.11,1.07,4.38h0a21.35,21.35,0,0,0-1.55,3.12A29,29,0,0,1,190.85,192.51Zm.34-2.27.08,0Zm.4.19.11,0Z"/><path d="M241.86,186.29h0l5-5.25a4.65,4.65,0,0,0,1-5.46l-5.2-7.8-.28-.07a10.1,10.1,0,0,0-3.14-1.73,6.59,6.59,0,0,0-2.38-.27l-1.65,0v-1.88a4.46,4.46,0,0,0,2.49-3.42.66.66,0,0,0,.2.14,1.4,1.4,0,0,0,1.21-2.45.85.85,0,0,0-.35-.08h.08c-.26-6.11-5.26-5.83-5.26-5.83-6.15.36-5.85,5.88-5.85,5.88v0h-.05a1.4,1.4,0,0,0,1.21,2.45.56.56,0,0,0,.2-.14,4.45,4.45,0,0,0,2.8,3.56v1.75l-1.37,0a6.59,6.59,0,0,0-2.38.27s-5.25,1.32-10,10.33a2.67,2.67,0,0,0,.23,1.94,50,50,0,0,0,4.75,7.8l-1.35.33a1,1,0,0,0-.69,1.15l2.05,8.3a1,1,0,0,0,1.16.7l1.37-.34c-.35,12.46,2.1,31.4,2.1,31.4a9.92,9.92,0,0,0,1.38.34c0,.36.08.64.1.82L225.78,231a.45.45,0,0,0,.25.83h6.26l.15,0a.39.39,0,0,0,.25-.37v-2.67h0l0-.65.39,0c.24-6.45.82-24.07.82-24.07l.79,24.09h.44l0,.66h0v2.67a.39.39,0,0,0,.4.4h6.26a.45.45,0,0,0,.24-.83l-3.5-2.28.09-.75a11.63,11.63,0,0,0,1.36-.23c.72-6.25,2.5-26.77,2.27-31.53a25.9,25.9,0,0,0-.63-4.19c1-.17,1.73-.31,1.73-.31a20.66,20.66,0,0,0-1.15-3.32q-.36-.87-.75-1.65s0-.09,0-.14Zm1.25-8-3.2,5.41h0l-.11.18c-.28-.42-.47-.67-.51-.72.06-.37.82-4.29,1.63-8.12ZM226.8,174c.44,2.89,1.29,8.49,1.38,9.15-.11.16-.43.62-.84,1.28a65.53,65.53,0,0,1-4-6.46A46.35,46.35,0,0,1,226.8,174Z"/><path d="M179.05,202.38c0-.06-.69.31-.71.24s.67-.84.58-.85-.82.61-.85.56.65-.78.55-.86-.82.73-.87.63.7-.92.59-1-1,.85-1.23,1.14a.07.07,0,0,1-.11,0c-.18-.77-.24-.82-.32-.78a15.45,15.45,0,0,0-.31,1.73h0l-.16.2h0l-2.12,2.82-4.28-.88h0l-.63-.13-.62-.13h-.82v0l-.14,0h-1v-1a3.63,3.63,0,0,0,2.23-2.87.91.91,0,0,0,.16.11,1.15,1.15,0,0,0,1-2,.84.84,0,0,0-.74,0h0c0-.1.86-3.86-2.84-4.38,0-.31,0-.64,0-1-.09.18-.16.37-.24.56a3.2,3.2,0,0,0-.1.39H166c0-.31,0-.65,0-1-.09.18-.16.37-.24.56a2.32,2.32,0,0,0-.1.42h0s0-.05,0-.07c0-.32,0-.67,0-1-.09.19-.15.38-.23.57a2.24,2.24,0,0,0-.1.39s0,0,0,0a8.93,8.93,0,0,1,0-1c-.09.19-.16.38-.24.57s-.06.21-.09.32a4.32,4.32,0,0,1-.24-.63c0,.09,0,.17,0,.26l-.2-.4c0,.2.06.39.08.59a2.34,2.34,0,0,0,.15.49v0h0a.31.31,0,0,1-.05-.1c-.12-.28-.18-.6-.28-.91,0,.13,0,.26-.06.4-.08-.16-.16-.33-.25-.49,0,.2,0,.39.08.59a2.54,2.54,0,0,0,.14.47.76.76,0,0,1-.08-.11,1,1,0,0,0-.1-.17l-.18-.65a1.7,1.7,0,0,0,0,.22c-.07-.14-.14-.28-.22-.42,0,.19.06.39.08.59a2.8,2.8,0,0,0,.09.31v0l-.21-.38c0-.13-.07-.26-.1-.39a.7.7,0,0,0,0,.14l-.19-.39c0,.2,0,.39.08.59a1.46,1.46,0,0,0,.05.2h0a.22.22,0,0,1,0,.08l-.23-.25-.09-.33a1.2,1.2,0,0,0,0,.2c-.06-.07-.12-.12-.17-.19a1.42,1.42,0,0,0,.14.36l0,.18v0l-.47-.57a3,3,0,0,0,.12.32l-.06-.07a1.7,1.7,0,0,0,.08.51l-.56-.67c.06.19.14.37.21.56a1.86,1.86,0,0,0,.11.19.59.59,0,0,0,0,.13c-.26-.26-.49-.56-.74-.86.06.18.14.37.21.55a2.26,2.26,0,0,0,.4.63,1.51,1.51,0,0,1-.23-.21c-.26-.27-.49-.58-.75-.88.06.19.14.37.21.56a2,2,0,0,0,.11.2,7.66,7.66,0,0,1-.66-.45,2.73,2.73,0,0,0,1.19,1.14s.1.07.15.11h0a1.73,1.73,0,0,1-.36-.18c-.32-.2-.62-.44-.94-.67a5.36,5.36,0,0,0,.34.49,2.39,2.39,0,0,0,.69.62,4.17,4.17,0,0,0-.69,3.35.8.8,0,0,0-.72,0,1.14,1.14,0,0,0,1,2l.17-.11a3.61,3.61,0,0,0,2.43,2.94v1h-2.11s-2.12-1.44-3.61,13.28l.27.12a1.41,1.41,0,0,1-.14.17c-.83,1.36-.8,1.37-.75,1.41s.54-.42.58-.36-.43.88-.35.87.6-.7.64-.66-.42.81-.31.87.57-.82.64-.74-.43,1-.33,1a6.79,6.79,0,0,0,.86-1.26.07.07,0,0,1,.11,0c.31.64.37.67.43.62a9.92,9.92,0,0,0-.07-1.54c.15,0,.31.07.47.09h0c-.24,4.68,1.31,11.88,1.31,11.88.25.05.5.08.74.11l0,.27h0l-1,.68-.41.27-.56.36a.26.26,0,0,0,.14.49h3.67a.23.23,0,0,0,.23-.23V231h.48c.15-2.43.52-9,.52-9l.49,9s.48,0,1.1,0v1.75a.23.23,0,0,0,.24.23h3.67a.27.27,0,0,0,.14-.49l-.57-.36-.41-.27-1-.68h0l0-.29.14,0c.45-2.35,1.56-10.06,1.42-11.85a10.94,10.94,0,0,0-1.69-4.07l.34-6.88,1.33.27,2.76.55a2.31,2.31,0,0,0,2.31-1.5l1.46-3.28h0l.1-.22.24-.19C179.12,202.46,179.08,202.43,179.05,202.38Zm-17.62-3.1h0Z"/></g></g></svg>